# xmcd
#
# Track frame offsets:
#	182
#	13062
#	30887
#	42562
#	59587
#	75150
#	91787
#	107037
#	125050
#	140800
#	155662
#	170737
#	185712
#
# Disc length: 2715
#
# Revision: 3
# Processed by: cddbd v1.5.1PL0 Copyright (c) Steve Scherf et al.
# Submitted via: DiscPlay 4.0.3
# Normalized: r1:TDELIM( - );r2:TSWAP
#
DISCID=b00a990d
DTITLE=Various Artist - La Nueva Musica Country - CD1
DYEAR=1900
DGENRE=
TTITLE0=Garth Brooks - Papa Loves Mama
TTITLE1=Suzy Bogguss - Someday Soon
TTITLE2=Yellow Brick Road Turns Blue - Chris Ledoux
TTITLE3=Nitty Gritty Dirty Band - One Good Love
TTITLE4=Skip Ewing - Naturally
TTITLE5=Tanya Tucker - He Was Just Leaving
TTITLE6=Larry Gatlin and The Gatlin Brothers - Billy Jack Willis
TTITLE7=Feed Jake - Pirates Of The Mississippi
TTITLE8=Jason - Feels So Right
TTITLE9=Paulette Carlson - The Chain Just Broke
TTITLE10=Billy Dean - Somewhere In My Broken Heart
TTITLE11=Lee Greenwood - Monday All Week Long
TTITLE12=Gary Morris - Full Moon On An Empty Heart
EXTD=
EXTT0=
EXTT1=
EXTT2=
EXTT3=
EXTT4=
EXTT5=
EXTT6=
EXTT7=
EXTT8=
EXTT9=
EXTT10=
EXTT11=
EXTT12=
PLAYORDER=
